<mxfile host="Electron" modified="2023-04-19T13:21:32.566Z" agent="Mozilla/5.0 (Macintosh; Intel Mac OS X 10_15_7) AppleWebKit/537.36 (KHTML, like Gecko) draw.io/21.1.2 Chrome/106.0.5249.199 Electron/21.4.3 Safari/537.36" etag="Ix4tY5K6aaokJOaiA2lk" version="21.1.2" type="device">
  <diagram id="C5RBs43oDa-KdzZeNtuy" name="Page-1">
    <mxGraphModel dx="2290" dy="992" grid="1" gridSize="10" guides="1" tooltips="1" connect="1" arrows="1" fold="1" page="1" pageScale="1" pageWidth="827" pageHeight="1169" math="0" shadow="0">
      <root>
        <mxCell id="WIyWlLk6GJQsqaUBKTNV-0" />
        <mxCell id="WIyWlLk6GJQsqaUBKTNV-1" parent="WIyWlLk6GJQsqaUBKTNV-0" />
        <mxCell id="WIyWlLk6GJQsqaUBKTNV-2" value="" style="rounded=0;html=1;jettySize=auto;orthogonalLoop=1;fontSize=11;endArrow=block;endFill=0;endSize=8;strokeWidth=1;shadow=0;labelBackgroundColor=none;edgeStyle=orthogonalEdgeStyle;" parent="WIyWlLk6GJQsqaUBKTNV-1" source="WIyWlLk6GJQsqaUBKTNV-3" target="WIyWlLk6GJQsqaUBKTNV-6" edge="1">
          <mxGeometry relative="1" as="geometry" />
        </mxCell>
        <mxCell id="WIyWlLk6GJQsqaUBKTNV-3" value="Utilisateur lance une recherche dans barre de recherche" style="rounded=1;whiteSpace=wrap;html=1;fontSize=12;glass=0;strokeWidth=1;shadow=0;fillColor=#d5e8d4;strokeColor=#82b366;" parent="WIyWlLk6GJQsqaUBKTNV-1" vertex="1">
          <mxGeometry x="140" y="70" width="160" height="50" as="geometry" />
        </mxCell>
        <mxCell id="WIyWlLk6GJQsqaUBKTNV-5" value="Non" style="edgeStyle=orthogonalEdgeStyle;rounded=0;html=1;jettySize=auto;orthogonalLoop=1;fontSize=11;endArrow=block;endFill=0;endSize=8;strokeWidth=1;shadow=0;labelBackgroundColor=none;" parent="WIyWlLk6GJQsqaUBKTNV-1" source="WIyWlLk6GJQsqaUBKTNV-6" target="WIyWlLk6GJQsqaUBKTNV-7" edge="1">
          <mxGeometry y="10" relative="1" as="geometry">
            <mxPoint as="offset" />
          </mxGeometry>
        </mxCell>
        <mxCell id="WIyWlLk6GJQsqaUBKTNV-6" value="Longueur mot au moins 3 caractères" style="rhombus;whiteSpace=wrap;html=1;shadow=0;fontFamily=Helvetica;fontSize=12;align=center;strokeWidth=1;spacing=6;spacingTop=-4;fillColor=#fff2cc;strokeColor=#d6b656;" parent="WIyWlLk6GJQsqaUBKTNV-1" vertex="1">
          <mxGeometry x="125" y="180" width="190" height="130" as="geometry" />
        </mxCell>
        <mxCell id="WIyWlLk6GJQsqaUBKTNV-7" value="Ne rien faire" style="rounded=1;whiteSpace=wrap;html=1;fontSize=12;glass=0;strokeWidth=1;shadow=0;fillColor=#f5f5f5;fontColor=#333333;strokeColor=#666666;" parent="WIyWlLk6GJQsqaUBKTNV-1" vertex="1">
          <mxGeometry x="400" y="225" width="120" height="40" as="geometry" />
        </mxCell>
        <mxCell id="WIyWlLk6GJQsqaUBKTNV-9" value="Oui" style="edgeStyle=orthogonalEdgeStyle;rounded=0;html=1;jettySize=auto;orthogonalLoop=1;fontSize=11;endArrow=block;endFill=0;endSize=8;strokeWidth=1;shadow=0;labelBackgroundColor=none;exitX=0;exitY=0.5;exitDx=0;exitDy=0;" parent="WIyWlLk6GJQsqaUBKTNV-1" source="WIyWlLk6GJQsqaUBKTNV-6" edge="1">
          <mxGeometry y="10" relative="1" as="geometry">
            <mxPoint as="offset" />
            <mxPoint x="270" y="330" as="sourcePoint" />
            <mxPoint x="30" y="245" as="targetPoint" />
          </mxGeometry>
        </mxCell>
        <mxCell id="u-vG2AFn2QRA5HmBGSvr-2" value="Précision recherche dans bouton Ingredient/Appareil/Ustensile" style="rounded=1;whiteSpace=wrap;html=1;fontSize=12;glass=0;strokeWidth=1;shadow=0;fillColor=#f5f5f5;fontColor=#333333;strokeColor=#666666;" vertex="1" parent="WIyWlLk6GJQsqaUBKTNV-1">
          <mxGeometry x="-230" y="680" width="260" height="55" as="geometry" />
        </mxCell>
        <mxCell id="u-vG2AFn2QRA5HmBGSvr-4" value="" style="edgeStyle=orthogonalEdgeStyle;rounded=0;html=1;jettySize=auto;orthogonalLoop=1;fontSize=11;endArrow=block;endFill=0;endSize=8;strokeWidth=1;shadow=0;labelBackgroundColor=none;entryX=0.5;entryY=0;entryDx=0;entryDy=0;" edge="1" parent="WIyWlLk6GJQsqaUBKTNV-1" source="u-vG2AFn2QRA5HmBGSvr-0" target="u-vG2AFn2QRA5HmBGSvr-2">
          <mxGeometry y="10" relative="1" as="geometry">
            <mxPoint as="offset" />
            <mxPoint x="-100" y="470" as="sourcePoint" />
            <mxPoint x="-90" y="340" as="targetPoint" />
          </mxGeometry>
        </mxCell>
        <mxCell id="u-vG2AFn2QRA5HmBGSvr-5" value="" style="edgeStyle=orthogonalEdgeStyle;rounded=0;html=1;jettySize=auto;orthogonalLoop=1;fontSize=11;endArrow=block;endFill=0;endSize=8;strokeWidth=1;shadow=0;labelBackgroundColor=none;entryX=0.5;entryY=0;entryDx=0;entryDy=0;exitX=0.5;exitY=1;exitDx=0;exitDy=0;" edge="1" parent="WIyWlLk6GJQsqaUBKTNV-1" source="u-vG2AFn2QRA5HmBGSvr-2" target="u-vG2AFn2QRA5HmBGSvr-6">
          <mxGeometry y="10" relative="1" as="geometry">
            <mxPoint as="offset" />
            <mxPoint x="-100.5" y="585" as="sourcePoint" />
            <mxPoint x="-100.5" y="635" as="targetPoint" />
          </mxGeometry>
        </mxCell>
        <mxCell id="u-vG2AFn2QRA5HmBGSvr-6" value="element recherché associé à une recette" style="rhombus;whiteSpace=wrap;html=1;shadow=0;fontFamily=Helvetica;fontSize=12;align=center;strokeWidth=1;spacing=6;spacingTop=-4;fillColor=#fff2cc;strokeColor=#d6b656;" vertex="1" parent="WIyWlLk6GJQsqaUBKTNV-1">
          <mxGeometry x="-212.5" y="837.5" width="225" height="180" as="geometry" />
        </mxCell>
        <mxCell id="u-vG2AFn2QRA5HmBGSvr-8" value="Suppression du mot dans la liste bouton" style="rounded=1;whiteSpace=wrap;html=1;fontSize=12;glass=0;strokeWidth=1;shadow=0;fillColor=#f5f5f5;fontColor=#333333;strokeColor=#666666;" vertex="1" parent="WIyWlLk6GJQsqaUBKTNV-1">
          <mxGeometry x="120" y="900" width="260" height="55" as="geometry" />
        </mxCell>
        <mxCell id="u-vG2AFn2QRA5HmBGSvr-9" value="Oui" style="edgeStyle=orthogonalEdgeStyle;rounded=0;html=1;jettySize=auto;orthogonalLoop=1;fontSize=11;endArrow=block;endFill=0;endSize=8;strokeWidth=1;shadow=0;labelBackgroundColor=none;exitX=0;exitY=0.5;exitDx=0;exitDy=0;entryX=1;entryY=0.5;entryDx=0;entryDy=0;" edge="1" parent="WIyWlLk6GJQsqaUBKTNV-1" source="u-vG2AFn2QRA5HmBGSvr-6" target="u-vG2AFn2QRA5HmBGSvr-11">
          <mxGeometry y="10" relative="1" as="geometry">
            <mxPoint as="offset" />
            <mxPoint x="-265" y="729.5" as="sourcePoint" />
            <mxPoint x="-360" y="729.5" as="targetPoint" />
          </mxGeometry>
        </mxCell>
        <mxCell id="u-vG2AFn2QRA5HmBGSvr-10" value="Non" style="edgeStyle=orthogonalEdgeStyle;rounded=0;html=1;jettySize=auto;orthogonalLoop=1;fontSize=11;endArrow=block;endFill=0;endSize=8;strokeWidth=1;shadow=0;labelBackgroundColor=none;exitX=1;exitY=0.5;exitDx=0;exitDy=0;" edge="1" parent="WIyWlLk6GJQsqaUBKTNV-1" source="u-vG2AFn2QRA5HmBGSvr-6" target="u-vG2AFn2QRA5HmBGSvr-8">
          <mxGeometry y="10" relative="1" as="geometry">
            <mxPoint as="offset" />
            <mxPoint x="30" y="729.5" as="sourcePoint" />
            <mxPoint x="115" y="729.5" as="targetPoint" />
          </mxGeometry>
        </mxCell>
        <mxCell id="u-vG2AFn2QRA5HmBGSvr-11" value="conservation du mot dans la liste du button&amp;nbsp;" style="rounded=1;whiteSpace=wrap;html=1;fontSize=12;glass=0;strokeWidth=1;shadow=0;fillColor=#f5f5f5;fontColor=#333333;strokeColor=#666666;" vertex="1" parent="WIyWlLk6GJQsqaUBKTNV-1">
          <mxGeometry x="-543" y="900" width="260" height="55" as="geometry" />
        </mxCell>
        <mxCell id="u-vG2AFn2QRA5HmBGSvr-12" value="" style="edgeStyle=orthogonalEdgeStyle;rounded=0;html=1;jettySize=auto;orthogonalLoop=1;fontSize=11;endArrow=block;endFill=0;endSize=8;strokeWidth=1;shadow=0;labelBackgroundColor=none;entryX=0.5;entryY=0;entryDx=0;entryDy=0;exitX=0.5;exitY=1;exitDx=0;exitDy=0;" edge="1" parent="WIyWlLk6GJQsqaUBKTNV-1" source="u-vG2AFn2QRA5HmBGSvr-11" target="u-vG2AFn2QRA5HmBGSvr-13">
          <mxGeometry y="10" relative="1" as="geometry">
            <mxPoint as="offset" />
            <mxPoint x="-420" y="757.5" as="sourcePoint" />
            <mxPoint x="-420" y="832.5" as="targetPoint" />
          </mxGeometry>
        </mxCell>
        <mxCell id="u-vG2AFn2QRA5HmBGSvr-13" value="L&#39;utilisateur clique sur un mot" style="rounded=1;whiteSpace=wrap;html=1;fontSize=12;glass=0;strokeWidth=1;shadow=0;fillColor=#f5f5f5;fontColor=#333333;strokeColor=#666666;" vertex="1" parent="WIyWlLk6GJQsqaUBKTNV-1">
          <mxGeometry x="-543" y="1030" width="260" height="55" as="geometry" />
        </mxCell>
        <mxCell id="u-vG2AFn2QRA5HmBGSvr-15" value="creation TAG avec le mot" style="rhombus;whiteSpace=wrap;html=1;shadow=0;fontFamily=Helvetica;fontSize=12;align=center;strokeWidth=1;spacing=6;spacingTop=-4;fillColor=#fff2cc;strokeColor=#d6b656;" vertex="1" parent="WIyWlLk6GJQsqaUBKTNV-1">
          <mxGeometry x="-509.25" y="1140" width="192.5" height="100" as="geometry" />
        </mxCell>
        <mxCell id="u-vG2AFn2QRA5HmBGSvr-16" value="" style="edgeStyle=orthogonalEdgeStyle;rounded=0;html=1;jettySize=auto;orthogonalLoop=1;fontSize=11;endArrow=block;endFill=0;endSize=8;strokeWidth=1;shadow=0;labelBackgroundColor=none;entryX=0.5;entryY=0;entryDx=0;entryDy=0;exitX=0.5;exitY=1;exitDx=0;exitDy=0;" edge="1" parent="WIyWlLk6GJQsqaUBKTNV-1" source="u-vG2AFn2QRA5HmBGSvr-13" target="u-vG2AFn2QRA5HmBGSvr-15">
          <mxGeometry y="10" relative="1" as="geometry">
            <mxPoint as="offset" />
            <mxPoint x="-420" y="920" as="sourcePoint" />
            <mxPoint x="-410" y="860" as="targetPoint" />
          </mxGeometry>
        </mxCell>
        <mxCell id="u-vG2AFn2QRA5HmBGSvr-18" value="modification liste recette + boutons recherche" style="rhombus;whiteSpace=wrap;html=1;shadow=0;fontFamily=Helvetica;fontSize=12;align=center;strokeWidth=1;spacing=6;spacingTop=-4;fillColor=#fff2cc;strokeColor=#d6b656;" vertex="1" parent="WIyWlLk6GJQsqaUBKTNV-1">
          <mxGeometry x="-510" y="1300" width="192.5" height="100" as="geometry" />
        </mxCell>
        <mxCell id="u-vG2AFn2QRA5HmBGSvr-19" value="" style="edgeStyle=orthogonalEdgeStyle;rounded=0;html=1;jettySize=auto;orthogonalLoop=1;fontSize=11;endArrow=block;endFill=0;endSize=8;strokeWidth=1;shadow=0;labelBackgroundColor=none;entryX=0.5;entryY=0;entryDx=0;entryDy=0;" edge="1" parent="WIyWlLk6GJQsqaUBKTNV-1" source="u-vG2AFn2QRA5HmBGSvr-15" target="u-vG2AFn2QRA5HmBGSvr-18">
          <mxGeometry y="10" relative="1" as="geometry">
            <mxPoint as="offset" />
            <mxPoint x="-420.5" y="1100" as="sourcePoint" />
            <mxPoint x="-420.5" y="1165" as="targetPoint" />
          </mxGeometry>
        </mxCell>
        <mxCell id="u-vG2AFn2QRA5HmBGSvr-20" value="L&#39;utilisateur peut sélectionner une recette correspondante à sa recherche" style="rounded=1;whiteSpace=wrap;html=1;fontSize=12;glass=0;strokeWidth=1;shadow=0;fillColor=#f5f5f5;fontColor=#333333;strokeColor=#666666;" vertex="1" parent="WIyWlLk6GJQsqaUBKTNV-1">
          <mxGeometry x="-543" y="1450" width="260" height="55" as="geometry" />
        </mxCell>
        <mxCell id="u-vG2AFn2QRA5HmBGSvr-21" value="" style="edgeStyle=orthogonalEdgeStyle;rounded=0;html=1;jettySize=auto;orthogonalLoop=1;fontSize=11;endArrow=block;endFill=0;endSize=8;strokeWidth=1;shadow=0;labelBackgroundColor=none;entryX=0.5;entryY=0;entryDx=0;entryDy=0;exitX=0.5;exitY=1;exitDx=0;exitDy=0;" edge="1" parent="WIyWlLk6GJQsqaUBKTNV-1" source="u-vG2AFn2QRA5HmBGSvr-18" target="u-vG2AFn2QRA5HmBGSvr-20">
          <mxGeometry y="10" relative="1" as="geometry">
            <mxPoint as="offset" />
            <mxPoint x="-420.5" y="1230" as="sourcePoint" />
            <mxPoint x="-420.5" y="1280" as="targetPoint" />
          </mxGeometry>
        </mxCell>
        <mxCell id="u-vG2AFn2QRA5HmBGSvr-0" value="Actualisation Interface &lt;br&gt;liste recettes + boutons&amp;nbsp;" style="rhombus;whiteSpace=wrap;html=1;shadow=0;fontFamily=Helvetica;fontSize=12;align=center;strokeWidth=1;spacing=6;spacingTop=-4;fillColor=#fff2cc;strokeColor=#d6b656;" vertex="1" parent="WIyWlLk6GJQsqaUBKTNV-1">
          <mxGeometry x="-195" y="480" width="190" height="130" as="geometry" />
        </mxCell>
        <mxCell id="u-vG2AFn2QRA5HmBGSvr-23" value="recherche database" style="rhombus;whiteSpace=wrap;html=1;shadow=0;fontFamily=Helvetica;fontSize=12;align=center;strokeWidth=1;spacing=6;spacingTop=-4;fillColor=#fff2cc;strokeColor=#d6b656;" vertex="1" parent="WIyWlLk6GJQsqaUBKTNV-1">
          <mxGeometry x="-100" y="195" width="130" height="100" as="geometry" />
        </mxCell>
        <mxCell id="u-vG2AFn2QRA5HmBGSvr-25" value="Affichage &quot;Aucune recette ne correspond à votre critère... Vous pouvez chercher &quot;tarte aux pommes&quot;, &quot;poisson&quot;, etc." style="rounded=1;whiteSpace=wrap;html=1;fontSize=12;glass=0;strokeWidth=1;shadow=0;fillColor=#f5f5f5;fontColor=#333333;strokeColor=#666666;" vertex="1" parent="WIyWlLk6GJQsqaUBKTNV-1">
          <mxGeometry x="-730" y="557" width="260" height="55" as="geometry" />
        </mxCell>
        <mxCell id="u-vG2AFn2QRA5HmBGSvr-26" value="Aucun mot détecté" style="edgeStyle=orthogonalEdgeStyle;rounded=0;html=1;jettySize=auto;orthogonalLoop=1;fontSize=11;endArrow=block;endFill=0;endSize=8;strokeWidth=1;shadow=0;labelBackgroundColor=none;exitX=0;exitY=0.5;exitDx=0;exitDy=0;" edge="1" parent="WIyWlLk6GJQsqaUBKTNV-1" source="u-vG2AFn2QRA5HmBGSvr-23" target="u-vG2AFn2QRA5HmBGSvr-25">
          <mxGeometry y="10" relative="1" as="geometry">
            <mxPoint as="offset" />
            <mxPoint x="-165" y="240" as="sourcePoint" />
            <mxPoint x="-260" y="240" as="targetPoint" />
          </mxGeometry>
        </mxCell>
        <mxCell id="u-vG2AFn2QRA5HmBGSvr-27" value="mots détectés" style="edgeStyle=orthogonalEdgeStyle;rounded=0;html=1;jettySize=auto;orthogonalLoop=1;fontSize=11;endArrow=block;endFill=0;endSize=8;strokeWidth=1;shadow=0;labelBackgroundColor=none;exitX=0.5;exitY=1;exitDx=0;exitDy=0;entryX=0.5;entryY=0;entryDx=0;entryDy=0;" edge="1" parent="WIyWlLk6GJQsqaUBKTNV-1" source="u-vG2AFn2QRA5HmBGSvr-23" target="u-vG2AFn2QRA5HmBGSvr-0">
          <mxGeometry x="-0.26" y="13" relative="1" as="geometry">
            <mxPoint x="6" as="offset" />
            <mxPoint x="-117" y="330" as="sourcePoint" />
            <mxPoint x="-70" y="450" as="targetPoint" />
          </mxGeometry>
        </mxCell>
        <mxCell id="u-vG2AFn2QRA5HmBGSvr-28" value="L&#39;utilisateur lance une recherche dans un bouton de recherche personnalisé" style="rounded=1;whiteSpace=wrap;html=1;fontSize=12;glass=0;strokeWidth=1;shadow=0;fillColor=#d5e8d4;strokeColor=#82b366;" vertex="1" parent="WIyWlLk6GJQsqaUBKTNV-1">
          <mxGeometry x="-100" y="1330" width="260" height="55" as="geometry" />
        </mxCell>
        <mxCell id="u-vG2AFn2QRA5HmBGSvr-29" value="" style="edgeStyle=orthogonalEdgeStyle;rounded=0;html=1;jettySize=auto;orthogonalLoop=1;fontSize=11;endArrow=block;endFill=0;endSize=8;strokeWidth=1;shadow=0;labelBackgroundColor=none;exitX=0.5;exitY=0;exitDx=0;exitDy=0;" edge="1" parent="WIyWlLk6GJQsqaUBKTNV-1" source="u-vG2AFn2QRA5HmBGSvr-28">
          <mxGeometry y="10" relative="1" as="geometry">
            <mxPoint as="offset" />
            <mxPoint x="-90" y="745" as="sourcePoint" />
            <mxPoint x="-100" y="1020" as="targetPoint" />
          </mxGeometry>
        </mxCell>
        <mxCell id="u-vG2AFn2QRA5HmBGSvr-30" value="Aucun mot détecté" style="edgeStyle=orthogonalEdgeStyle;rounded=0;html=1;jettySize=auto;orthogonalLoop=1;fontSize=11;endArrow=block;endFill=0;endSize=8;strokeWidth=1;shadow=0;labelBackgroundColor=none;exitX=0;exitY=0;exitDx=0;exitDy=0;entryX=0.5;entryY=1;entryDx=0;entryDy=0;" edge="1" parent="WIyWlLk6GJQsqaUBKTNV-1" source="u-vG2AFn2QRA5HmBGSvr-6" target="u-vG2AFn2QRA5HmBGSvr-25">
          <mxGeometry x="-0.6815" y="-22" relative="1" as="geometry">
            <mxPoint as="offset" />
            <mxPoint x="-90" y="255" as="sourcePoint" />
            <mxPoint x="-590" y="567" as="targetPoint" />
            <Array as="points">
              <mxPoint x="-350" y="883" />
              <mxPoint x="-350" y="720" />
              <mxPoint x="-600" y="720" />
            </Array>
          </mxGeometry>
        </mxCell>
        <mxCell id="u-vG2AFn2QRA5HmBGSvr-31" value="" style="edgeStyle=orthogonalEdgeStyle;rounded=0;html=1;jettySize=auto;orthogonalLoop=1;fontSize=11;endArrow=block;endFill=0;endSize=8;strokeWidth=1;shadow=0;labelBackgroundColor=none;entryX=0;entryY=0.5;entryDx=0;entryDy=0;exitX=1;exitY=0.5;exitDx=0;exitDy=0;" edge="1" parent="WIyWlLk6GJQsqaUBKTNV-1" source="u-vG2AFn2QRA5HmBGSvr-18" target="u-vG2AFn2QRA5HmBGSvr-28">
          <mxGeometry y="10" relative="1" as="geometry">
            <mxPoint as="offset" />
            <mxPoint x="-403" y="1250" as="sourcePoint" />
            <mxPoint x="-404" y="1310" as="targetPoint" />
          </mxGeometry>
        </mxCell>
      </root>
    </mxGraphModel>
  </diagram>
</mxfile>
